<svg width="52" height="30" viewBox="0 0 52 30" fill="none" xmlns="http://www.w3.org/2000/svg">
<path d="M19.2593 26.25C12.9037 26.25 7.7037 21.225 7.7037 15C7.7037 8.775 12.9037 3.75 19.2593 3.75C25.6148 3.75 30.8148 8.8125 30.8148 15C30.8148 21.1875 25.6533 26.25 19.2593 26.25ZM26.963 15C26.963 13.6125 26.5778 12.3375 25.923 11.2125L15.3689 21.4875C16.5244 22.125 17.8341 22.5 19.2593 22.5C23.5348 22.5 26.963 19.1625 26.963 15ZM11.5556 15C11.5556 16.3875 11.9407 17.7 12.6341 18.825L23.1881 8.55C22.0326 7.875 20.6844 7.5 19.2593 7.5C15.0222 7.5 11.5556 10.875 11.5556 15V15ZM34.6667 30C36.9778 30 38.5185 28.5 38.5185 26.25V3.75C38.5185 1.125 36.9778 0 34.6667 0H3.85185C1.54074 0 0 1.5 0 3.75V26.25C0 28.5 1.15556 30 3.85185 30H34.6667ZM42.3704 19.3125L52 26.2125V3.7125L42.3704 10.4625V19.3125Z" fill="black" fill-opacity="0.5"/>
</svg>
