<svg width="18" height="18" viewBox="0 0 18 18" fill="none" xmlns="http://www.w3.org/2000/svg">
<path d="M14.5921 13.5994C13.0571 15.2203 10.9156 16.2228 8.54681 16.2228C6.17798 16.2228 4.03655 15.2203 2.50155 13.5994C1.47821 14.68 0.435926 16.1643 6.10352e-05 18H17.0936C16.6514 16.1643 15.6154 14.68 14.5858 13.5994H14.5921Z" fill="#374C69"/>
<path d="M8.54048 15.0313C12.5707 15.0313 15.8365 11.6657 15.8365 7.5124C15.8365 3.3591 12.5707 0 8.54048 0C4.51031 0 1.25079 3.36561 1.25079 7.5124C1.25079 11.6592 4.51662 15.0313 8.5468 15.0313H8.54048ZM8.54048 2.10269C11.4399 2.10269 13.7961 4.52436 13.7961 7.51891C13.7961 10.5134 11.4463 12.9351 8.54048 12.9351C5.63471 12.9351 3.28483 10.5069 3.28483 7.51891C3.28483 4.53087 5.64103 2.10269 8.54048 2.10269V2.10269Z" fill="#374C69"/>
<path d="M11.7115 7.51918C11.7115 9.32241 10.2902 10.7871 8.54046 10.7871C6.79068 10.7871 5.36938 9.32241 5.36938 7.51918C5.36938 5.71594 6.79068 4.25122 8.54046 4.25122C10.2902 4.25122 11.7115 5.71594 11.7115 7.51918Z" fill="#374C69"/>
</svg>
